<svg xmlns="http://www.w3.org/2000/svg" width="346.06" height="345.626" viewBox="0 0 173.03 172.813">
  <defs>
    <style>
      .cls-1 {
        fill: #333;
        fill-rule: evenodd;
      }
    </style>
  </defs>
  <path id="About_Me_About_Me_About_Me_About_Me" data-name="About Me  About Me  About Me  About Me" class="cls-1" d="M1535.08,708.412l-4.35-16.407-1.78-.2-7.87,15.045,2,0.222,2.4-4.639,6.21,0.692,1.35,5.058Zm-8.74-7.659,2.3-4.54c0.12-.238.26-0.567,0.43-0.984s0.35-.847.51-1.287q0.06,0.273.15,0.783c0.06,0.339.12,0.668,0.19,0.987s0.12,0.539.15,0.66l1.22,4.934Zm15.74-7.705L1537,709.032l1.32,0.421,0.84-1.309,0.14,0.047a4.331,4.331,0,0,0,.96,1.578,4.541,4.541,0,0,0,2.01,1.173,4.473,4.473,0,0,0,3.84-.4,6.86,6.86,0,0,0,2.67-3.966,6.776,6.776,0,0,0,.12-4.769,4.471,4.471,0,0,0-2.91-2.536,4.531,4.531,0,0,0-2.32-.206,4.075,4.075,0,0,0-1.71.777l-0.11-.033q0.165-.345.39-0.955c0.15-.407.3-0.848,0.46-1.325l1.23-3.891Zm4.79,12.9a5.978,5.978,0,0,1-1.77,2.98,2.649,2.649,0,0,1-2.61.4,2.892,2.892,0,0,1-2.19-1.911,6.43,6.43,0,0,1,.33-3.4l0.03-.084a6.216,6.216,0,0,1,1.7-2.979,2.911,2.911,0,0,1,2.82-.237q3.06,0.97,1.69,5.24h0Zm14.88,3.451a4.832,4.832,0,0,0-.74-2.736,5.462,5.462,0,0,0-2.16-1.953,5.206,5.206,0,0,0-4.3-.474,6.415,6.415,0,0,0-3.41,3.317,7.133,7.133,0,0,0-.94,3.287,5.009,5.009,0,0,0,.73,2.755,5.447,5.447,0,0,0,2.13,1.938,5.233,5.233,0,0,0,4.32.454,6.469,6.469,0,0,0,3.44-3.326A7.194,7.194,0,0,0,1561.75,709.4Zm-6.58-3.436a2.957,2.957,0,0,1,2.88.171,2.99,2.99,0,0,1,1.78,2.29,5.6,5.6,0,0,1-.79,3.3,5.748,5.748,0,0,1-2.29,2.546,3.45,3.45,0,0,1-4.66-2.456,5.935,5.935,0,0,1,.82-3.324A5.753,5.753,0,0,1,1555.17,705.96Zm18.39,8.877-3.8,4.844a5.625,5.625,0,0,1-2.56,2.031,3.087,3.087,0,0,1-2.83-.815c-1.38-1.081-1.48-2.362-.32-3.844l4.7-5.99-1.55-1.213-4.78,6.1a4.344,4.344,0,0,0-1.17,3.246,4.508,4.508,0,0,0,1.9,2.8,5.465,5.465,0,0,0,1.97,1,3.38,3.38,0,0,0,2.09-.087l0.07,0.055-0.75,1.41,1.25,0.981,7.31-9.307Zm-0.15,13.636a2.19,2.19,0,0,1,.81-1.476l4.97-4.7,2.35,2.486,1.09-1.031-2.35-2.486,1.97-1.865-0.79-.834-2.35,1.167-1.73-.7-0.68.637,1.16,1.219-5.01,4.731a4.286,4.286,0,0,0-1.28,1.885,2.557,2.557,0,0,0,.06,1.688,4.493,4.493,0,0,0,.94,1.462,6.367,6.367,0,0,0,.83.734,3.427,3.427,0,0,0,.79.467l1.08-1.016a3.557,3.557,0,0,1-.65-0.424,7.849,7.849,0,0,1-.67-0.612A1.839,1.839,0,0,1,1573.41,728.473Zm9.88,17.309,14.66-1.774,0.04,0.078c-0.43.193-.99,0.448-1.67,0.765s-1.36.653-2.04,1.01l-8.57,4.511,0.91,1.739,13.95-7.338-1.36-2.579-13.72,1.637-0.05-.078,9.17-10.309-1.37-2.6-13.94,7.338,0.85,1.621,8.46-4.45c0.74-.39,1.45-0.778,2.12-1.164s1.19-.7,1.58-0.956l0.04,0.078-9.82,11.024Zm15.72,8.841a4.968,4.968,0,0,0-2.54-1.224,7.8,7.8,0,0,0-3.39.223,7.048,7.048,0,0,0-3.04,1.545,4.8,4.8,0,0,0-1.45,2.45,6.255,6.255,0,0,0,.1,3.055,10.528,10.528,0,0,0,.72,1.98,9.144,9.144,0,0,0,1.02,1.578l1.64-.434a11.251,11.251,0,0,1-1.04-1.584,8.675,8.675,0,0,1-.72-1.877,3.579,3.579,0,0,1,.32-2.925,4.417,4.417,0,0,1,2.69-1.773l2.07,7.831,1.13-.3a6.385,6.385,0,0,0,2.57-1.285,4.3,4.3,0,0,0,1.37-2.109,5.006,5.006,0,0,0-.02-2.687A5.075,5.075,0,0,0,1599.01,754.623Zm-0.47,5.181a4.143,4.143,0,0,1-2.18,1.306l-1.54-5.826a4.224,4.224,0,0,1,2.65.294,2.792,2.792,0,0,1,1.42,1.895A2.47,2.47,0,0,1,1598.54,759.8Zm-8.46,32.19,16.34-4.6,0.17-1.78-15.16-7.642-0.2,2,4.68,2.333-0.6,6.218-5.03,1.423Zm7.53-8.856,4.57,2.235q0.36,0.168.99,0.417c0.42,0.165.85,0.329,1.3,0.49q-0.285.062-.78,0.158-0.51.095-.99,0.205t-0.66.158l-4.91,1.3Zm7.94,15.63-16.06-4.839-0.4,1.332,1.32,0.813-0.04.148a4.4,4.4,0,0,0-1.57.981,4.584,4.584,0,0,0-1.14,2.03,4.484,4.484,0,0,0,.46,3.827,8.514,8.514,0,0,0,8.78,2.656,5.024,5.024,0,0,0,2.66-5.272,4.073,4.073,0,0,0-.8-1.694l0.03-.106q0.345,0.15.96,0.37c0.41,0.146.85,0.292,1.33,0.436l3.91,1.178Zm-12.82,4.989a6.1,6.1,0,0,1-3.01-1.724,2.666,2.666,0,0,1-.43-2.61,2.876,2.876,0,0,1,1.87-2.212,6.4,6.4,0,0,1,3.41.278l0.09,0.025a6.149,6.149,0,0,1,3,1.655,2.875,2.875,0,0,1,.28,2.816q-0.915,3.065-5.21,1.772h0Zm-3.21,14.922a4.931,4.931,0,0,0,2.72-.782,5.535,5.535,0,0,0,1.92-2.194,5.231,5.231,0,0,0,.41-4.311,6.474,6.474,0,0,0-3.37-3.358,7.272,7.272,0,0,0-3.3-.884,5.01,5.01,0,0,0-2.75.772,5.363,5.363,0,0,0-1.9,2.165,5.2,5.2,0,0,0-.39,4.321,6.439,6.439,0,0,0,3.38,3.387A7.228,7.228,0,0,0,1589.52,818.679Zm3.33-6.637a2.953,2.953,0,0,1-.13,2.882,3,3,0,0,1-2.26,1.821,5.62,5.62,0,0,1-3.31-.741,5.747,5.747,0,0,1-2.58-2.252,3.43,3.43,0,0,1,2.38-4.693,5.871,5.871,0,0,1,3.34.766A5.77,5.77,0,0,1,1592.85,812.042Zm-8.59,18.522-4.9-3.725a5.592,5.592,0,0,1-2.07-2.529,3.082,3.082,0,0,1,.77-2.838q1.59-2.092,3.84-.382l6.06,4.607,1.19-1.564-6.17-4.687a4.33,4.33,0,0,0-3.26-1.122,4.519,4.519,0,0,0-2.77,1.944,5.521,5.521,0,0,0-.97,1.983,3.385,3.385,0,0,0,.12,2.087l-0.05.07-1.42-.72-0.96,1.265,9.42,7.158Zm-13.64.066a2.172,2.172,0,0,1,1.49.784l4.78,4.9-2.45,2.388,1.05,1.075,2.45-2.389,1.89,1.943,0.82-.8-1.2-2.341,0.68-1.739-0.65-.664-1.2,1.171-4.81-4.929a4.292,4.292,0,0,0-1.9-1.257,2.653,2.653,0,0,0-1.69.088,4.5,4.5,0,0,0-1.45.965,6.9,6.9,0,0,0-.72.842,3,3,0,0,0-.45.8l1.03,1.059a3.231,3.231,0,0,1,.41-0.651,6.5,6.5,0,0,1,.6-0.679A1.811,1.811,0,0,1,1570.62,830.63Zm-17.15,10.152,2,14.624-0.08.042c-0.2-.427-0.46-0.979-0.79-1.655s-0.68-1.35-1.04-2.022l-4.65-8.5-1.72.942,7.55,13.83,2.56-1.4-1.85-13.7,0.08-.042,10.45,9,2.57-1.407L1561,836.666l-1.61.878,4.58,8.388c0.41,0.736.8,1.436,1.2,2.1s0.72,1.185.98,1.564l-0.08.042L1554.9,840Zm-8.6,15.851a4.988,4.988,0,0,0,1.18-2.557,7.622,7.622,0,0,0-.28-3.384,6.867,6.867,0,0,0-1.59-3.015,4.758,4.758,0,0,0-2.47-1.414,6.213,6.213,0,0,0-3.05.148,10.124,10.124,0,0,0-1.97.748,9.308,9.308,0,0,0-1.56,1.046l0.46,1.637a10.979,10.979,0,0,1,1.56-1.071,8.779,8.779,0,0,1,1.87-.743,3.586,3.586,0,0,1,2.93.266,4.452,4.452,0,0,1,1.81,2.665l-7.79,2.192,0.31,1.126a6.276,6.276,0,0,0,1.33,2.551,4.309,4.309,0,0,0,2.13,1.338,4.94,4.94,0,0,0,2.68-.067A5.059,5.059,0,0,0,1544.87,856.633Zm-5.19-.388a4.1,4.1,0,0,1-1.34-2.156l5.8-1.631a4.237,4.237,0,0,1-.25,2.65,2.815,2.815,0,0,1-1.88,1.455A2.488,2.488,0,0,1,1539.68,856.245Zm-33.1-8.108,4.67,16.319,1.78,0.163,7.58-15.2-2-.183-2.32,4.686-6.22-.57-1.44-5.03Zm8.89,7.486-2.21,4.584c-0.11.241-.25,0.572-0.41,0.993s-0.33.853-.49,1.3c-0.04-.181-0.09-0.441-0.16-0.779s-0.13-.666-0.21-0.983-0.13-.537-0.16-0.658l-1.32-4.908Zm-15.6,8.012,4.77-16.081-1.34-.395-0.8,1.325-0.15-.043a4.314,4.314,0,0,0-.99-1.56,4.573,4.573,0,0,0-2.03-1.133,4.468,4.468,0,0,0-3.83.477,8.5,8.5,0,0,0-2.62,8.789,4.486,4.486,0,0,0,2.96,2.478,4.554,4.554,0,0,0,2.33.16,4.159,4.159,0,0,0,1.69-.811l0.1,0.031q-0.15.348-.36,0.962c-0.15.41-.29,0.855-0.43,1.335l-1.16,3.914Zm-5.05-12.8a6.024,6.024,0,0,1,1.72-3.015,2.651,2.651,0,0,1,2.6-.447,2.881,2.881,0,0,1,2.22,1.868,6.421,6.421,0,0,1-.26,3.409l-0.03.085a6.116,6.116,0,0,1-1.64,3.012,2.9,2.9,0,0,1-2.81.293q-3.075-.909-1.8-5.205h0Zm-14.94-3.155a4.968,4.968,0,0,0,.8,2.721,5.49,5.49,0,0,0,2.2,1.91,5.208,5.208,0,0,0,4.31.389,6.392,6.392,0,0,0,3.34-3.384,7.362,7.362,0,0,0,.88-3.305,4.975,4.975,0,0,0-.79-2.74,5.4,5.4,0,0,0-2.17-1.9,5.211,5.211,0,0,0-4.32-.369,6.458,6.458,0,0,0-3.38,3.393A7.429,7.429,0,0,0,1479.88,847.681Zm6.65,3.306a2.953,2.953,0,0,1-2.88-.115,3,3,0,0,1-1.83-2.254,5.643,5.643,0,0,1,.73-3.315,5.783,5.783,0,0,1,2.24-2.591,3.433,3.433,0,0,1,4.7,2.364,5.8,5.8,0,0,1-.75,3.339A5.734,5.734,0,0,1,1486.53,850.987Zm-18.54-8.5,3.7-4.919a5.55,5.55,0,0,1,2.52-2.081,3.076,3.076,0,0,1,2.84.758q2.1,1.581.4,3.837l-4.58,6.083,1.57,1.181,4.66-6.188a4.375,4.375,0,0,0,1.11-3.269,4.551,4.551,0,0,0-1.96-2.758,5.441,5.441,0,0,0-1.99-.957,3.351,3.351,0,0,0-2.08.128l-0.07-.053,0.71-1.425-1.27-.956-7.12,9.45Zm-0.13-13.639a2.146,2.146,0,0,1-.78,1.492l-4.87,4.8-2.4-2.439-1.07,1.053,2.4,2.438-1.94,1.9,0.81,0.818,2.33-1.213,1.74,0.669,0.66-.65-1.17-1.2,4.91-4.829a4.3,4.3,0,0,0,1.25-1.909,2.61,2.61,0,0,0-.1-1.686,4.458,4.458,0,0,0-.97-1.444,6.349,6.349,0,0,0-.85-0.717,3.163,3.163,0,0,0-.8-0.452l-1.05,1.037a3.5,3.5,0,0,1,.65.411,5.7,5.7,0,0,1,.68.6A1.758,1.758,0,0,1,1467.86,828.845Zm-10.22-17.1-14.61,2.069-0.04-.077q0.63-.3,1.65-0.8,1-.5,2.01-1.05l8.49-4.683-0.95-1.72-13.8,7.617,1.41,2.55,13.69-1.912,0.04,0.077-8.95,10.491,1.42,2.57,13.79-7.616-0.88-1.6-8.37,4.619c-0.73.4-1.43,0.808-2.09,1.207s-1.19.728-1.56,0.987l-0.05-.077,9.59-11.219Zm-15.6-7.66a4.92,4.92,0,0,0,2.57,1.144,7.809,7.809,0,0,0,3.38-.328,7,7,0,0,0,2.99-1.64,4.784,4.784,0,0,0,1.37-2.494,6.188,6.188,0,0,0-.19-3.051,10.039,10.039,0,0,0-.78-1.956,9.747,9.747,0,0,0-1.07-1.546l-1.63.486a11.307,11.307,0,0,1,1.1,1.55,8.861,8.861,0,0,1,.77,1.855,3.615,3.615,0,0,1-.22,2.932,4.442,4.442,0,0,1-2.64,1.857l-2.31-7.762-1.12.334a6.325,6.325,0,0,0-2.53,1.364,4.3,4.3,0,0,0-1.31,2.151,5.052,5.052,0,0,0,.11,2.685A4.985,4.985,0,0,0,1442.04,804.085Zm0.3-5.192a4.143,4.143,0,0,1,2.14-1.374l1.72,5.774a4.236,4.236,0,0,1-2.66-.21,2.831,2.831,0,0,1-1.48-1.85A2.5,2.5,0,0,1,1442.34,798.893Zm7.6-33.226-16.25,4.918-0.13,1.782,15.31,7.341,0.15-2-4.72-2.241,0.47-6.228,5.01-1.522Zm-7.35,9-4.62-2.144c-0.24-.107-0.58-0.239-1-0.4s-0.86-.312-1.3-0.464c0.18-.045.44-0.1,0.77-0.174s0.67-.145.98-0.224,0.54-.136.66-0.171l4.89-1.4Zm-8.25-15.484,16.15,4.52,0.37-1.339-1.33-.787,0.04-.149a4.323,4.323,0,0,0,1.54-1.012,5,5,0,0,0,.57-5.869,8.513,8.513,0,0,0-8.83-2.482,4.432,4.432,0,0,0-2.43,3,4.609,4.609,0,0,0-.13,2.326,4.169,4.169,0,0,0,.84,1.678l-0.03.106c-0.23-.1-0.56-0.213-0.97-0.351s-0.86-.274-1.34-0.409l-3.93-1.1Zm12.72-5.242a6.1,6.1,0,0,1,3.04,1.665,2.65,2.65,0,0,1,.48,2.6,2.88,2.88,0,0,1-1.83,2.249,6.387,6.387,0,0,1-3.41-.211l-0.09-.023a6.124,6.124,0,0,1-3.03-1.6,2.9,2.9,0,0,1-.34-2.81q0.855-3.082,5.18-1.875h0Zm2.91-14.979a4.9,4.9,0,0,0-2.7.836,5.522,5.522,0,0,0-1.88,2.232,5.214,5.214,0,0,0-.32,4.318,6.431,6.431,0,0,0,3.43,3.29,7.281,7.281,0,0,0,3.32.819,5.015,5.015,0,0,0,2.73-.827,5.355,5.355,0,0,0,1.86-2.2,5.186,5.186,0,0,0,.3-4.328,6.428,6.428,0,0,0-3.44-3.32A7.247,7.247,0,0,0,1449.97,738.965Zm-3.2,6.7a2.964,2.964,0,0,1,.07-2.883,3.027,3.027,0,0,1,2.23-1.866,5.61,5.61,0,0,1,3.32.676,5.789,5.789,0,0,1,2.63,2.2,3.441,3.441,0,0,1-2.29,4.74,5.848,5.848,0,0,1-3.35-.7A5.764,5.764,0,0,1,1446.77,745.666Zm8.22-18.687,4.98,3.628a5.593,5.593,0,0,1,2.12,2.488,3.1,3.1,0,0,1-.72,2.853c-1.03,1.415-2.3,1.567-3.83.457l-6.15-4.487-1.16,1.587,6.26,4.565a4.358,4.358,0,0,0,3.29,1.058,4.541,4.541,0,0,0,2.73-2,5.367,5.367,0,0,0,.92-2,3.307,3.307,0,0,0-.16-2.084l0.05-.071,1.44,0.691,0.94-1.283-9.56-6.971Zm13.64-.336a2.163,2.163,0,0,1-1.5-.754l-4.87-4.8,2.4-2.436-1.07-1.053-2.4,2.436-1.94-1.906-0.8.817,1.25,2.317-0.65,1.752,0.66,0.651,1.18-1.194,4.91,4.834a4.286,4.286,0,0,0,1.92,1.22,2.657,2.657,0,0,0,1.69-.122,4.536,4.536,0,0,0,1.43-.993,6.9,6.9,0,0,0,.7-0.856,3.3,3.3,0,0,0,.44-0.806l-1.05-1.039a3.722,3.722,0,0,1-.4.659,8.043,8.043,0,0,1-.59.691A1.809,1.809,0,0,1,1468.63,726.643Zm16.95-10.481-2.3-14.582,0.08-.043c0.21,0.423.48,0.969,0.82,1.639s0.71,1.337,1.09,2l4.81,8.41,1.7-.976-7.82-13.677-2.53,1.447,2.12,13.662-0.08.044-10.62-8.795-2.55,1.458,7.82,13.677,1.59-.909-4.74-8.3c-0.42-.728-0.83-1.42-1.24-2.076s-0.75-1.17-1.01-1.545l0.07-.043,11.37,9.415Zm7.39-15.716a4.986,4.986,0,0,0-1.1,2.593,7.874,7.874,0,0,0,.38,3.374,7,7,0,0,0,1.69,2.963,4.766,4.766,0,0,0,2.51,1.336,6.24,6.24,0,0,0,3.05-.244,10.117,10.117,0,0,0,1.94-.809,8.685,8.685,0,0,0,1.53-1.1l-0.51-1.62a11.423,11.423,0,0,1-1.53,1.119,8.611,8.611,0,0,1-1.84.8,3.589,3.589,0,0,1-2.94-.174,4.479,4.479,0,0,1-1.9-2.606l7.73-2.436-0.35-1.116a6.381,6.381,0,0,0-1.41-2.508,4.294,4.294,0,0,0-2.17-1.271A5.442,5.442,0,0,0,1492.97,700.446Zm5.2,0.224a4.205,4.205,0,0,1,1.41,2.114l-5.75,1.812a4.237,4.237,0,0,1,.17-2.657,2.8,2.8,0,0,1,1.83-1.513A2.488,2.488,0,0,1,1498.17,700.67Z" transform="translate(-1433.56 -691.812)"/>
</svg>
